<?xml version="1.0" standalone="no"?>
<!DOCTYPE svg PUBLIC "-//W3C//DTD SVG 20010904//EN"
 "http://www.w3.org/TR/2001/REC-SVG-20010904/DTD/svg10.dtd">
<svg version="1.0" xmlns="http://www.w3.org/2000/svg"
 width="3000.000000pt" height="3000.000000pt" viewBox="0 0 3000.000000 3000.000000"
 preserveAspectRatio="xMidYMid meet">
<metadata>
Created by potrace 1.11, written by Peter Selinger 2001-2013
</metadata>
<g transform="translate(0.000000,3000.000000) scale(0.100000,-0.100000)"
fill="#000000" stroke="none">
<path d="M0 15000 l0 -15000 15000 0 15000 0 0 15000 0 15000 -15000 0 -15000
0 0 -15000z m21330 9411 c-8 -5 -136 -53 -285 -106 -240 -86 -1477 -531 -2150
-773 -137 -50 -428 -154 -645 -232 -217 -78 -620 -223 -895 -322 -275 -99
-588 -211 -695 -249 -107 -39 -214 -77 -238 -86 l-42 -16 -208 125 c-114 69
-589 356 -1057 638 -467 282 -1037 625 -1265 763 -228 137 -419 254 -424 258
-6 5 1759 9 3955 9 2266 0 3958 -4 3949 -9z m-7588 -1289 c363 -662 659 -1204
657 -1206 -2 -1 -168 -62 -369 -134 -472 -169 -1322 -474 -1565 -562 -104 -37
-368 -132 -585 -210 -1056 -380 -1406 -505 -1530 -550 -179 -65 -846 -304
-1085 -390 -104 -37 -392 -141 -640 -230 -247 -89 -535 -193 -640 -230 -104
-37 -203 -73 -218 -79 -16 -6 -27 -7 -25 -3 1 5 620 564 1373 1242 2549 2295
3558 3204 3755 3382 107 97 199 176 203 175 5 -1 306 -544 669 -1205z m7938
-1257 c0 -1457 -4 -2425 -9 -2425 -5 0 -443 262 -973 581 -1974 1193 -2642
1595 -3345 2019 -397 239 -723 437 -723 440 0 3 199 76 443 164 243 87 658
236 922 331 436 157 814 293 1520 547 474 170 1052 378 1590 572 297 107 548
195 558 195 16 1 17 -121 17 -2424z m-6872 1455 l1301 -785 -32 -14 c-28 -12
-665 -242 -1222 -441 -104 -37 -202 -73 -217 -78 l-26 -11 -589 1071 c-323
589 -590 1076 -592 1081 -2 5 14 -1 36 -14 22 -13 625 -377 1341 -809z m2121
-1282 c311 -187 967 -583 1456 -878 2421 -1461 3070 -1853 3074 -1856 2 -2
-1205 -3 -2684 -2 l-2688 3 -629 1145 c-346 630 -654 1191 -684 1246 l-54 101
142 52 c1012 365 1475 530 1487 531 8 0 269 -154 580 -342z m-1887 -1288 c291
-531 601 -1095 687 -1253 l158 -288 -56 -53 c-31 -29 -508 -459 -1061 -956
-553 -498 -1123 -1011 -1267 -1141 l-263 -237 -1887 840 c-1039 462 -2278
1013 -2755 1225 -478 212 -868 389 -868 392 0 3 87 37 193 74 200 72 254 91
1072 385 275 99 678 244 895 322 887 319 1214 436 1390 500 74 27 362 130 640
230 278 100 566 203 640 230 74 27 362 130 640 230 278 100 588 211 690 248
102 36 280 101 395 143 116 42 214 76 219 75 4 -1 247 -436 538 -966z m-4562
-2945 c1394 -620 2565 -1141 2603 -1158 l67 -30 0 -1156 0 -1156 -1028 -457
c-565 -251 -1842 -819 -2838 -1262 -997 -443 -1815 -806 -1818 -806 -3 0 -6
1658 -6 3684 l0 3684 243 -108 c133 -59 1383 -615 2777 -1235z"/>
</g>
</svg>
